<?xml version="1.0" standalone="no"?>
<!DOCTYPE svg PUBLIC "-//W3C//DTD SVG 20010904//EN"
 "http://www.w3.org/TR/2001/REC-SVG-20010904/DTD/svg10.dtd">
<svg version="1.0" xmlns="http://www.w3.org/2000/svg"
 width="1200.000000pt" height="1693.000000pt" viewBox="0 0 1200.000000 1693.000000"
 preserveAspectRatio="xMidYMid meet">

<g transform="translate(0.000000,1693.000000) scale(0.100000,-0.100000)"
fill="#000000" stroke="none">
<path d="M4920 16185 l0 -745 -545 0 -545 0 0 -385 0 -385 925 0 925 0 0 1130
0 1130 -380 0 -380 0 0 -745z"/>
<path d="M6050 16670 l0 -261 303 -327 c316 -343 516 -564 631 -696 50 -58 65
-81 56 -90 -8 -8 -155 -12 -500 -14 l-490 -4 0 -304 0 -304 1065 0 1065 0 0
268 -1 267 -511 550 -511 550 464 11 c255 7 476 12 492 13 l27 1 0 300 0 300
-1045 0 -1045 0 0 -260z"/>
</g>
</svg>
